# 3ds Max Wavefront OBJ Exporter v0.97b - (c)2007 guruware
# File Created: 02.05.2017 04:01:23

mtllib DS_Card.mtl

#
# object default
#

v  3.0289 0.0134 0.0311
v  3.0289 9.0085 0.0311
v  -3.0289 9.0085 0.0311
v  -3.0289 0.0134 0.0311
v  3.0289 9.0085 -0.0311
v  -3.0289 9.0085 -0.0311
v  3.0289 0.0134 -0.0311
v  -3.0289 0.0134 -0.0311
# 8 vertices

vn 0.0000 0.0000 1.0000
vn 0.0000 1.0000 -0.0000
vn 0.0000 0.0000 -1.0000
vn 0.0000 -1.0000 -0.0000
vn 1.0000 0.0000 -0.0000
vn -1.0000 0.0000 -0.0000
# 6 vertex normals

vt 0.4952 0.0046 0.0000
vt 0.4952 0.7352 0.0000
vt 0.0031 0.7352 0.0000
vt 0.0031 0.0046 0.0000
vt 0.8578 0.8749 0.0000
vt 0.8578 0.8799 0.0000
vt 0.3658 0.8799 0.0000
vt 0.3658 0.8749 0.0000
vt 0.5023 0.7352 0.0000
vt 0.5023 0.0046 0.0000
vt 0.9944 0.0046 0.0000
vt 0.9944 0.7352 0.0000
vt 0.8578 0.8880 0.0000
vt 0.8578 0.8931 0.0000
vt 0.3658 0.8931 0.0000
vt 0.3658 0.8880 0.0000
vt 0.8578 0.8537 0.0000
vt 0.1272 0.8537 0.0000
vt 0.1272 0.8486 0.0000
vt 0.8578 0.8486 0.0000
vt 0.8578 0.8668 0.0000
vt 0.1272 0.8668 0.0000
vt 0.1272 0.8618 0.0000
vt 0.8578 0.8618 0.0000
# 24 texture coords

g default
usemtl _DS_Cardlambert2SG
f 1/1/1 2/2/1 3/3/1 
f 3/3/1 4/4/1 1/1/1 
f 2/5/2 5/6/2 6/7/2 
f 6/7/2 3/8/2 2/5/2 
f 5/9/3 7/10/3 8/11/3 
f 8/11/3 6/12/3 5/9/3 
f 7/13/4 1/14/4 4/15/4 
f 4/15/4 8/16/4 7/13/4 
f 7/17/5 5/18/5 2/19/5 
f 2/19/5 1/20/5 7/17/5 
f 4/21/6 3/22/6 6/23/6 
f 6/23/6 8/24/6 4/21/6 
# 12 faces

